<?xml version="1.0" standalone="no"?>
<!DOCTYPE svg PUBLIC "-//W3C//DTD SVG 20010904//EN"
 "http://www.w3.org/TR/2001/REC-SVG-20010904/DTD/svg10.dtd">
<svg version="1.0" xmlns="http://www.w3.org/2000/svg"
 width="101.000000pt" height="101.000000pt" viewBox="0 0 101.000000 101.000000"
 preserveAspectRatio="xMidYMid meet">
<metadata>
Created by potrace 1.11, written by Peter Selinger 2001-2013
</metadata>
<g transform="translate(0.000000,101.000000) scale(0.100000,-0.100000)"
fill="#000000" stroke="none">
<path d="M491 951 c-6 -11 -40 -34 -75 -51 -35 -16 -67 -37 -70 -46 -11 -28
-6 -59 14 -84 27 -35 27 -59 -1 -34 -20 18 -20 18 -16 -21 2 -22 6 -44 8 -50
5 -15 -53 -97 -61 -85 -4 6 -13 8 -22 5 -37 -15 -70 155 -45 235 l8 25 -20
-23 c-28 -32 -43 -94 -39 -159 l3 -55 -27 33 c-24 28 -28 30 -30 14 0 -11 -2
-27 -3 -35 0 -8 2 -27 6 -42 9 -34 3 -35 -28 -6 -23 21 -23 21 -23 1 0 -11 7
-39 15 -62 l14 -41 -30 16 c-30 15 -31 15 -24 -8 4 -13 16 -36 27 -52 l21 -29
-31 5 c-28 4 -30 3 -20 -16 6 -12 14 -23 17 -26 3 -3 13 -14 21 -24 14 -18 13
-19 -7 -14 -13 4 -23 2 -23 -2 0 -11 59 -60 71 -60 6 0 7 -5 4 -10 -4 -6 -11
-8 -16 -5 -5 4 -9 2 -9 -3 0 -6 19 -18 43 -28 29 -12 37 -19 25 -21 -28 -7
-21 -23 12 -30 30 -5 52 -23 30 -23 -6 0 -8 -5 -4 -11 10 -18 92 -4 125 20 43
32 67 21 65 -29 -1 -72 72 -117 136 -84 35 18 50 47 51 95 1 37 2 38 36 35 20
-2 53 -13 73 -25 39 -24 105 -26 101 -4 -2 6 14 17 34 24 31 10 34 13 21 23
-14 10 -10 15 25 35 33 19 38 25 24 30 -15 5 -13 9 13 24 16 10 34 27 40 37 9
16 7 18 -10 15 -26 -5 -25 0 5 33 33 35 32 51 -2 44 l-27 -5 17 26 c10 15 22
38 27 52 9 23 8 25 -9 15 -30 -16 -43 -13 -33 8 5 9 13 35 17 57 l7 40 -24
-22 c-13 -13 -26 -23 -29 -23 -2 0 -3 28 -1 62 l3 63 -28 -33 -28 -33 1 69 c1
49 -4 80 -18 108 -28 59 -41 66 -32 19 19 -95 -7 -220 -46 -220 -8 0 -18 -4
-21 -9 -4 -5 -15 4 -25 20 -10 16 -24 34 -32 41 -9 8 -12 18 -7 30 12 26 15
83 6 83 -5 0 -11 -7 -15 -15 -3 -8 -10 -15 -17 -15 -6 0 1 20 15 44 43 73 33
100 -52 136 -29 13 -61 34 -72 47 -18 24 -19 24 -29 4z"/>
</g>
</svg>
